# xmcd CD database file
#
# Track frame offsets:
#	150
#	18584
#	43643
#	70413
#	85652
#	105057
#	112415
#	130461
#	146117
#	164472
#	177185
#	194008
#	214031
#	231137
#	271196
#
# Disc length: 3827 seconds
#
# Revision: 1
# Processed by: cddbd v1.5.2PL0 Copyright (c) Steve Scherf et al.
# Submitted via: CDex 1.51
#
DISCID=db0ef10f
DTITLE=Tom Russell - Mesabi
DYEAR=2011
DGENRE=Americana
TTITLE0=Mesabi
TTITLE1=When the Legends Die
TTITLE2=Farewell Never Never Land
TTITLE3=The Lonesome Death of Ukulele Ike
TTITLE4=Sterling Hayden
TTITLE5=Furious Love (for Liz)
TTITLE6=A Land Called "Way Out There"
TTITLE7=Roll the Credits, Johnny
TTITLE8=Heart Within a Heart
TTITLE9=And God Created Border Towns
TTITLE10=Goodnight, Juarez
TTITLE11=Jai Alai
TTITLE12=Love Abides
TTITLE13=A Hard Rain's a-Gonna Fall (with Lucinda and Calexico)
TTITLE14=The Road to Nowhere
EXTD=YEAR: 2011
EXTT0=
EXTT1=
EXTT2=
EXTT3=
EXTT4=
EXTT5=
EXTT6=
EXTT7=
EXTT8=
EXTT9=
EXTT10=
EXTT11=
EXTT12=
EXTT13=
EXTT14=
PLAYORDER=
